<svg height="495" width="489" xmlns="http://www.w3.org/2000/svg"><style xmlns="http://www.w3.org/2000/svg">@media (prefers-color-scheme:dark){.mag{fill:#fff}.bg{fill:#333}}</style><path d="M0 0v219c3.836-8.546 3.708-19.819 5.884-29 4.157-17.54 9.898-34.605 17.425-51C49.389 82.192 98.664 36.595 157 14.576 175.024 7.773 195.583 1.401 215 1c-5.707-2.395-13.846-1-20-1h-44z" class="bg" fill="#fff"/><path d="M215 .425c-37.527 5.108-72.998 16.655-105 37.267C48.256 77.462 7.224 148.105.17 221c-.795 8.214-.17 16.75-.17 25 0 119.128 89.172 224.564 207 244.08 19.724 3.267 39.829 7.502 60 4.62 37.948-5.422 75.746-18.617 108-39.392 61.468-39.591 100.12-103.8 111.275-175.308.631-4.048 2.242-7.93 2.621-12 1.72-18.49.439-37.91-2.611-56-4.154-24.642-10.119-48.185-20.594-71C437.534 79.67 383.699 31.918 320 10.079c-14.314-4.908-29.168-5.23-44-7.35-19.629-2.804-41.179-5.002-61-2.304z" class="mag" fill="#333"/><path d="M261 0c10.418 5.007 25.615 3.868 37 5.285 14.533 1.808 28.718 6.942 42 13.024C398.342 45.022 445.501 92.474 469.989 152c9.236 22.45 13.145 45.414 18.011 69 2.497-5.951 1-14.58 1-21V0zm26 46.53c-12.093 2.774-22.696 13.377-25.471 25.47-3.012 13.127 1.046 28.815 2.301 42 .94 9.87 1.913 20.096 2.155 30 .298 12.128-.549 25.17 2.493 37 3.208 12.474 13.374 21.643 26.522 21.985 4.411.115 8.671-.112 13-.989 12.644-2.562 24.669-7.601 37-11.275 15.599-4.648 31.566-8.193 47-13.388 11.524-3.879 20.802-10.546 25.123-22.333 5.934-16.182-1.807-31.543-13.127-43-22.471-22.743-49.48-41.75-77.996-56.244-11.731-5.963-25.477-12.33-39-9.227m-102 1.935c-13.288 2.348-24.769 9.777-36 16.855-19.592 12.347-37.787 26.027-55 41.512-8.22 7.395-23.88 12.759-25.758 25.169-.617 4.078 1.342 7.983 1.665 12 .72 8.962.18 17.224 5.731 25 7.545 10.571 19.574 12.944 31.362 15.895 16.023 4.011 31.847 8.269 48 11.767 8.031 1.739 16.096 3.805 24 6.048 5.447 1.546 11.273 3.784 17 2.822 10.64-1.788 21.344-8.199 25.518-18.532 2.369-5.865 1.482-12.806 1.482-19 0-7.384 1-14.622 1-22 .001-16.334.614-32.656 1.015-49 .194-7.928 1.675-15.09-.254-23-4.353-17.853-21.843-28.702-39.761-25.536M247 218v8c-3.554.312-6.921 1.038-9.985 2.995-19.457 12.428-1.198 46.444 19.984 34.865 2.542-1.389 4.686-3.512 6.352-5.864 2.353-3.322 3.299-7.015 3.649-10.996-1.812 2.781-3.612 5.732-4 9-6.391 3.174-9.31 6.931-17 7 1.479-.986 1.203-1 3-1-3.559-2.473-7.696-1.602-11.381-3.45-8.278-4.15-3.978-15.089-1.619-21.55-1.884 1.98-2.469 3.31-3 6-.522-4.557 1.476-7.232 5-10-1.186 1.186-1.528 1.584-2 3 6.278-3.289 21.735-9.436 25 1 3.404.789 4.142 3.811 5 7 2.205-5.419-1.38-11.928-6.043-15.005-2.58-1.703-6.098-2.161-8.229-4.503-1.593-1.751-2.082-4.293-2.728-6.492 4.054.512 8.945 1.933 12.895.258 4.706-1.995 5.627-7.456 1.953-10.864-5.389-4.998-15.002-4.784-21.848-4.304-4.379.306-10.44 1.057-13.681 4.329-3.969 4.006-1.048 10.18 3.696 11.978 4.673 1.771 10.36-.443 14.985-1.397m166-10.536c-11.36 2.007-21.506 7.631-32 12.109-17.208 7.342-34.636 14.259-52 21.227-10.767 4.321-22.36 10.164-25.829 22.2-4.217 14.627 5.424 27.715 13.405 39 14.316 20.244 26.049 43.473 42.598 62 8.962 10.034 20.829 17.764 34.826 15.561 16.993-2.675 26.335-17.017 33.219-31.561 12.216-25.81 19.978-54.782 23.911-83 1.226-8.795 3.191-18.1 2.83-27-.827-20.373-21.661-33.946-40.96-30.536m-346 7.004C45.796 218.442 37.754 239.605 39.09 259c.675 9.805 3.664 19.511 6.036 29 6.3 25.196 15.106 49.406 28.024 72 9.572 16.741 22.994 30.467 43.85 26.532 12.889-2.431 20.859-12.964 27.2-23.532 11.728-19.545 24.173-38.652 36.224-58 8.032-12.896 15.627-25.549 10.028-41-4.327-11.943-15.43-15.822-26.452-19.344-18.226-5.823-36.388-12.004-54-19.506-13.431-5.722-27.91-13.511-43-10.682m207.005.878c-3.475.971-4.975 5.46-4.776 8.654.337 5.399 4.02 9.913 5.47 15 .985 3.455.79 7.814 3.043 10.772 1.607 2.111 4.488 3.431 7.149 2.866 4.018-.852 4.074-5.343 4.104-8.638.075-8.285-2.761-16.328-7.636-22.999-1.583-2.166-4.069-6.573-7.354-5.655m-57.962 1.726c-8.101 3.766-11.984 19.915-12.038 27.928-.034 4.986.887 12.952 7.983 10.253 7.546-2.87 5.841-12.225 8.685-18.253 1.698-3.598 4.775-6.851 5.008-11 .268-4.764-4.272-11.423-9.638-8.928z" class="bg" fill="#fff"/><path d="m238 232 1 1z" class="mag" fill="#333"/><path d="M243.015 233.742c-14.119 5.554-3.794 28.678 9.981 23.364 14.445-5.571 4.485-29.054-9.981-23.364z" class="bg" fill="#fff"/><path d="M256 240c-.027 9.365-3.178 14.51-13 12 5.977 10.84 22.319-2.874 13-12m-9.683 2.032c-5.475 3.551 1.031 11.893 5.94 7.939 4.357-3.509-1.01-11.136-5.94-7.939z" class="mag" fill="#333"/><path d="M233.333 249.667c-.055.055-.111 1.111.334.666.055-.055.111-1.111-.334-.666m1 3c-.055.055-.111 1.111.334.666.055-.055.111-1.111-.334-.666z" class="bg" fill="#fff"/><path d="m263 254 1 1z" class="mag" fill="#333"/><path d="M274 260.028c-4.457 2.176-7.879 6.596-12 9.374-3.422 2.307-7.931 3.777-9.972 7.641-5.69 10.771 7.925 10.179 13.972 7.439 6.941-3.144 14.335-9.112 17.001-16.482 2.171-6.004-3.195-10.808-9.001-7.972M244 288c.149-3.479 1.477-7.695-.194-10.945-2.021-3.934-6.275-4.436-9.806-6.333-5.745-3.087-13.214-14.815-20.851-9.118-5.194 3.875-1.375 9.778 1.956 13.381 7.618 8.243 17.783 12.537 28.895 13.015M0 269v226h230c-10.557-5.654-25.388-5.132-37-7.884-21.541-5.106-42.512-12.884-62-23.425C78.01 435.029 36.655 387.294 15.425 331c-4.893-12.976-8.523-26.408-11.225-40-1.395-7.017-1.28-15.495-4.2-22m488 2c-2.461 9.513-3.303 19.394-5.424 29-3.942 17.847-9.868 35.535-17.834 52C427.354 429.27 352.962 482.559 268 494c5.951 2.497 14.58 1 21 1h200V292c0-6.42 1.497-15.049-1-21m-245 34.518c-14.907 3.185-23.662 18.177-32.127 29.482-4.515 6.031-9.015 12.07-13.663 18-4.895 6.245-9.533 12.688-14.34 19-12.792 16.797-27.611 31.427-18.801 54 1.421 3.639 3.527 6.998 6.232 9.826 10.23 10.699 25.86 11.959 39.699 13.343 34.628 3.462 70.036 1.257 104-6.823 19.307-4.594 31.475-26.321 24.441-45.346-4.112-11.12-14.634-20.163-22.169-29-13.14-15.409-25.276-31.755-38.561-47-8.76-10.052-20.745-18.466-34.711-15.482z" class="bg" fill="#fff"/></svg>